<svg width="16.9" height="14.4" viewBox="16.1 14.9 16.9 14.4" fill="none" xmlns="http://www.w3.org/2000/svg">
<mask id="path-lang-inside" fill="white">
<path d="M27.4474 23.6837C26.7456 23.6837 26.1491 23.4381 25.6579 22.9469C25.1667 22.4557 24.9211 21.8592 24.9211 21.1574C24.9211 20.4557 25.1667 19.8592 25.6579 19.368C26.1491 18.8767 26.7456 18.6311 27.4474 18.6311C28.1491 18.6311 28.7456 18.8767 29.2368 19.368C29.7281 19.8592 29.9737 20.4557 29.9737 21.1574C29.9737 21.8592 29.7281 22.4557 29.2368 22.9469C28.7456 23.4381 28.1491 23.6837 27.4474 23.6837ZM23.2368 28.7364C22.9982 28.7364 22.7984 28.6555 22.6373 28.4939C22.4761 28.3322 22.3953 28.1323 22.3947 27.8943V27.1364C22.3947 26.8416 22.4649 26.5609 22.6053 26.2943C22.7456 26.0276 22.9421 25.8171 23.1947 25.6627C23.8263 25.2837 24.4966 24.9997 25.2057 24.8105C25.9147 24.6213 26.662 24.5264 27.4474 24.5259C28.2328 24.5253 28.9803 24.6202 29.6899 24.8105C30.3995 25.0008 31.0695 25.2849 31.7 25.6627C31.9526 25.8171 32.1491 26.0276 32.2895 26.2943C32.4298 26.5609 32.5 26.8416 32.5 27.1364V27.8943C32.5 28.1329 32.4192 28.333 32.2575 28.4947C32.0958 28.6564 31.8959 28.7369 31.6579 28.7364H23.2368ZM24.2053 27.0522H30.6895C30.1982 26.7715 29.6789 26.5609 29.1316 26.4206C28.5842 26.2802 28.0228 26.2101 27.4474 26.2101C26.8719 26.2101 26.3105 26.2802 25.7632 26.4206C25.2158 26.5609 24.6965 26.7715 24.2053 27.0522ZM27.4474 21.9995C27.686 21.9995 27.8861 21.9187 28.0478 21.757C28.2095 21.5953 28.29 21.3955 28.2895 21.1574C28.2889 20.9194 28.2081 20.7195 28.0469 20.5579C27.8858 20.3962 27.686 20.3153 27.4474 20.3153C27.2088 20.3153 27.0089 20.3962 26.8478 20.5579C26.6867 20.7195 26.6058 20.9194 26.6053 21.1574C26.6047 21.3955 26.6855 21.5956 26.8478 21.7579C27.01 21.9201 27.2099 22.0007 27.4474 21.9995ZM22.3947 23.6837H17.3421C17.1035 23.6837 16.9037 23.6029 16.7425 23.4412C16.5814 23.2795 16.5006 23.0797 16.5 22.8416C16.4994 22.6036 16.5803 22.4037 16.7425 22.2421C16.9048 22.0804 17.1046 21.9995 17.3421 21.9995H22.3947C22.6333 21.9995 22.8335 22.0804 22.9952 22.2421C23.1568 22.4037 23.2374 22.6036 23.2368 22.8416C23.2363 23.0797 23.1554 23.2798 22.9943 23.4421C22.8332 23.6043 22.6333 23.6849 22.3947 23.6837ZM25.7632 16.9469H17.3421C17.1035 16.9469 16.9037 16.8661 16.7425 16.7044C16.5814 16.5427 16.5006 16.3428 16.5 16.1048C16.4994 15.8668 16.5803 15.6669 16.7425 15.5052C16.9048 15.3435 17.1046 15.2627 17.3421 15.2627H25.7632C26.0018 15.2627 26.2019 15.3435 26.3636 15.5052C26.5253 15.6669 26.6058 15.8668 26.6053 16.1048C26.6047 16.3428 26.5239 16.543 26.3627 16.7052C26.2016 16.8675 26.0018 16.948 25.7632 16.9469ZM23.3211 20.3153H17.3421C17.1035 20.3153 16.9037 20.2345 16.7425 20.0728C16.5814 19.9111 16.5006 19.7113 16.5 19.4732C16.4994 19.2352 16.5803 19.0353 16.7425 18.8736C16.9048 18.712 17.1046 18.6311 17.3421 18.6311H24.0789C23.8825 18.8697 23.7247 19.1294 23.6057 19.4101C23.4867 19.6908 23.3918 19.9925 23.3211 20.3153Z"/>
</mask>
<path d="M27.4474 23.6837C26.7456 23.6837 26.1491 23.4381 25.6579 22.9469C25.1667 22.4557 24.9211 21.8592 24.9211 21.1574C24.9211 20.4557 25.1667 19.8592 25.6579 19.368C26.1491 18.8767 26.7456 18.6311 27.4474 18.6311C28.1491 18.6311 28.7456 18.8767 29.2368 19.368C29.7281 19.8592 29.9737 20.4557 29.9737 21.1574C29.9737 21.8592 29.7281 22.4557 29.2368 22.9469C28.7456 23.4381 28.1491 23.6837 27.4474 23.6837ZM23.2368 28.7364C22.9982 28.7364 22.7984 28.6555 22.6373 28.4939C22.4761 28.3322 22.3953 28.1323 22.3947 27.8943V27.1364C22.3947 26.8416 22.4649 26.5609 22.6053 26.2943C22.7456 26.0276 22.9421 25.8171 23.1947 25.6627C23.8263 25.2837 24.4966 24.9997 25.2057 24.8105C25.9147 24.6213 26.662 24.5264 27.4474 24.5259C28.2328 24.5253 28.9803 24.6202 29.6899 24.8105C30.3995 25.0008 31.0695 25.2849 31.7 25.6627C31.9526 25.8171 32.1491 26.0276 32.2895 26.2943C32.4298 26.5609 32.5 26.8416 32.5 27.1364V27.8943C32.5 28.1329 32.4192 28.333 32.2575 28.4947C32.0958 28.6564 31.8959 28.7369 31.6579 28.7364H23.2368ZM24.2053 27.0522H30.6895C30.1982 26.7715 29.6789 26.5609 29.1316 26.4206C28.5842 26.2802 28.0228 26.2101 27.4474 26.2101C26.8719 26.2101 26.3105 26.2802 25.7632 26.4206C25.2158 26.5609 24.6965 26.7715 24.2053 27.0522ZM27.4474 21.9995C27.686 21.9995 27.8861 21.9187 28.0478 21.757C28.2095 21.5953 28.29 21.3955 28.2895 21.1574C28.2889 20.9194 28.2081 20.7195 28.0469 20.5579C27.8858 20.3962 27.686 20.3153 27.4474 20.3153C27.2088 20.3153 27.0089 20.3962 26.8478 20.5579C26.6867 20.7195 26.6058 20.9194 26.6053 21.1574C26.6047 21.3955 26.6855 21.5956 26.8478 21.7579C27.01 21.9201 27.2099 22.0007 27.4474 21.9995ZM22.3947 23.6837H17.3421C17.1035 23.6837 16.9037 23.6029 16.7425 23.4412C16.5814 23.2795 16.5006 23.0797 16.5 22.8416C16.4994 22.6036 16.5803 22.4037 16.7425 22.2421C16.9048 22.0804 17.1046 21.9995 17.3421 21.9995H22.3947C22.6333 21.9995 22.8335 22.0804 22.9952 22.2421C23.1568 22.4037 23.2374 22.6036 23.2368 22.8416C23.2363 23.0797 23.1554 23.2798 22.9943 23.4421C22.8332 23.6043 22.6333 23.6849 22.3947 23.6837ZM25.7632 16.9469H17.3421C17.1035 16.9469 16.9037 16.8661 16.7425 16.7044C16.5814 16.5427 16.5006 16.3428 16.5 16.1048C16.4994 15.8668 16.5803 15.6669 16.7425 15.5052C16.9048 15.3435 17.1046 15.2627 17.3421 15.2627H25.7632C26.0018 15.2627 26.2019 15.3435 26.3636 15.5052C26.5253 15.6669 26.6058 15.8668 26.6053 16.1048C26.6047 16.3428 26.5239 16.543 26.3627 16.7052C26.2016 16.8675 26.0018 16.948 25.7632 16.9469ZM23.3211 20.3153H17.3421C17.1035 20.3153 16.9037 20.2345 16.7425 20.0728C16.5814 19.9111 16.5006 19.7113 16.5 19.4732C16.4994 19.2352 16.5803 19.0353 16.7425 18.8736C16.9048 18.712 17.1046 18.6311 17.3421 18.6311H24.0789C23.8825 18.8697 23.7247 19.1294 23.6057 19.4101C23.4867 19.6908 23.3918 19.9925 23.3211 20.3153Z" fill="#30956A" mask="url(#path-lang-inside)"/>
</svg>
